<svg width="22" height="18" viewBox="0 0 22 18" fill="none" xmlns="http://www.w3.org/2000/svg">
<path fill-rule="evenodd" clip-rule="evenodd" d="M20.7998 0.599609H1.19976C1.0141 0.599609 0.836057 0.673359 0.704781 0.804635C0.573506 0.93591 0.499756 1.11396 0.499756 1.29961V16.6996C0.499756 16.8853 0.573506 17.0633 0.704781 17.1946C0.836057 17.3259 1.0141 17.3996 1.19976 17.3996H20.7998C20.9854 17.3996 21.1635 17.3259 21.2947 17.1946C21.426 17.0633 21.4998 16.8853 21.4998 16.6996V1.29961C21.4998 1.11396 21.426 0.93591 21.2947 0.804635C21.1635 0.673359 20.9854 0.599609 20.7998 0.599609ZM1.89976 15.9996V1.99961H20.0998V15.9996H1.89976Z" fill="#1D1D1D"/>
<path fill-rule="evenodd" clip-rule="evenodd" d="M21.2536 1.83161L11.3906 10.2316C11.2636 10.3399 11.1022 10.3992 10.9353 10.399C10.7685 10.3987 10.6072 10.3389 10.4806 10.2302L0.742203 1.83021C0.633796 1.73693 0.556563 1.61268 0.520897 1.47418C0.48523 1.33568 0.492842 1.18958 0.542707 1.05554C0.592572 0.9215 0.682299 0.805948 0.799812 0.724436C0.917325 0.642923 1.05699 0.599361 1.2 0.59961H20.8C20.943 0.599885 21.0824 0.643938 21.1996 0.725843C21.3168 0.807748 21.4061 0.923578 21.4555 1.05775C21.505 1.19193 21.5121 1.33802 21.476 1.47636C21.4399 1.61471 21.3623 1.73868 21.2536 1.83161ZM18.8988 1.99961H3.083L10.9398 8.77701L18.8988 1.99961Z" fill="#1D1D1D"/>
</svg>
