<svg width="54" height="55" viewBox="0 0 54 55" fill="none" xmlns="http://www.w3.org/2000/svg">
<path d="M17.4149 37.7122L21.3364 36.548L44.9478 11.9584C45.1341 11.762 45.2378 11.4981 45.2365 11.2237C45.2353 10.9492 45.1292 10.6863 44.9412 10.4917L43.5271 9.02048C43.4357 8.92386 43.3266 8.84693 43.206 8.7942C43.0854 8.74146 42.9558 8.71397 42.8248 8.71333C42.6938 8.71269 42.564 8.73891 42.4429 8.79047C42.3219 8.84202 42.212 8.91788 42.1197 9.01361L18.5706 33.539L17.4127 37.7099L17.4149 37.7122ZM46.3263 6.10548L47.7403 7.57902C49.6911 9.61173 49.7089 12.8911 47.776 14.9032L23.4453 40.2444L15.0633 42.7286C14.5516 42.876 14.0039 42.8085 13.5405 42.5408C13.0771 42.2731 12.7358 41.8272 12.5915 41.3009C12.4841 40.9225 12.4826 40.5206 12.5871 40.1413L15.0255 31.3413L39.2916 6.06652C39.753 5.58839 40.3023 5.20958 40.9075 4.95221C41.5127 4.69483 42.1616 4.56403 42.8164 4.56745C43.4712 4.57086 44.1188 4.70841 44.7214 4.97209C45.324 5.23576 45.8696 5.62256 46.3263 6.10548ZM20.675 8.74777C21.7796 8.74777 22.6748 9.68048 22.6748 10.8309C22.6765 11.1028 22.6262 11.3725 22.5266 11.6244C22.427 11.8763 22.2802 12.1055 22.0945 12.299C21.9087 12.4925 21.6878 12.6464 21.4442 12.7519C21.2007 12.8574 20.9393 12.9125 20.675 12.914H12.6761C10.4671 12.914 8.67669 14.7794 8.67669 17.078V42.0709C8.67669 44.3717 10.4671 46.2372 12.6761 46.2372H36.6728C38.8819 46.2372 40.6745 44.3717 40.6745 42.0709V33.7407C40.6745 32.5903 41.5697 31.6576 42.6742 31.6576C43.7787 31.6576 44.6739 32.5903 44.6739 33.743V42.0709C44.6739 46.6726 41.0909 50.4034 36.6728 50.4034H12.6761C8.25804 50.4034 4.67725 46.6726 4.67725 42.0709V17.078C4.67725 12.4786 8.25804 8.74777 12.6761 8.74777H20.675Z" fill="white"/>
</svg>
