<svg width="25" height="25" viewBox="0 0 25 25" fill="none" xmlns="http://www.w3.org/2000/svg">
<g clip-path="url(#clip0_252_504)">
<path d="M20.8333 5.20801C21.1096 5.20801 21.3746 5.31775 21.5699 5.5131C21.7653 5.70846 21.875 5.97341 21.875 6.24967C21.875 6.52594 21.7653 6.79089 21.5699 6.98624C21.3746 7.18159 21.1096 7.29134 20.8333 7.29134H19.7917L19.7885 7.3653L18.8167 20.9809C18.7793 21.5065 18.5441 21.9984 18.1585 22.3576C17.7728 22.7167 17.2655 22.9164 16.7385 22.9163H8.26042C7.73348 22.9164 7.22611 22.7167 6.84051 22.3576C6.4549 21.9984 6.2197 21.5065 6.18229 20.9809L5.21042 7.36634C5.20884 7.34137 5.20814 7.31636 5.20833 7.29134H4.16667C3.8904 7.29134 3.62545 7.18159 3.4301 6.98624C3.23475 6.79089 3.125 6.52594 3.125 6.24967C3.125 5.97341 3.23475 5.70846 3.4301 5.5131C3.62545 5.31775 3.8904 5.20801 4.16667 5.20801H20.8333ZM14.5833 2.08301C14.8596 2.08301 15.1246 2.19275 15.3199 2.3881C15.5153 2.58346 15.625 2.84841 15.625 3.12467C15.625 3.40094 15.5153 3.66589 15.3199 3.86124C15.1246 4.05659 14.8596 4.16634 14.5833 4.16634H10.4167C10.1404 4.16634 9.87545 4.05659 9.6801 3.86124C9.48475 3.66589 9.375 3.40094 9.375 3.12467C9.375 2.84841 9.48475 2.58346 9.6801 2.3881C9.87545 2.19275 10.1404 2.08301 10.4167 2.08301H14.5833Z" fill="#00A884"/>
</g>
<defs>
<clipPath id="clip0_252_504">
<rect width="25" height="25" fill="white"/>
</clipPath>
</defs>
</svg>
