<svg width="22" height="22" viewBox="0 0 22 22" fill="none" xmlns="http://www.w3.org/2000/svg">
<path d="M7.07666 15.0847L8.69091 14.619L18.4103 4.78317C18.487 4.70461 18.5297 4.59905 18.5292 4.48928C18.5286 4.37951 18.485 4.27435 18.4076 4.19651L17.8255 3.60801C17.7879 3.56936 17.7429 3.53859 17.6933 3.51749C17.6437 3.4964 17.5903 3.4854 17.5364 3.48515C17.4825 3.48489 17.429 3.49538 17.3792 3.516C17.3294 3.53662 17.2841 3.56697 17.2462 3.60526L7.55241 13.4154L7.07574 15.0838L7.07666 15.0847ZM18.9777 2.44201L19.5598 3.03142C20.3628 3.84451 20.3702 5.15626 19.5745 5.96109L9.55899 16.0976L6.10866 17.0913C5.89801 17.1502 5.67257 17.1232 5.48181 17.0161C5.29105 16.9091 5.15056 16.7307 5.09116 16.5202C5.04696 16.3688 5.04633 16.208 5.08933 16.0563L6.09308 12.5363L16.082 2.42642C16.2719 2.23517 16.4981 2.08365 16.7472 1.9807C16.9963 1.87775 17.2634 1.82543 17.5329 1.82679C17.8025 1.82816 18.0691 1.88318 18.3171 1.98865C18.5652 2.09412 18.7897 2.24884 18.9777 2.44201ZM8.41866 3.49892C8.87333 3.49892 9.24183 3.87201 9.24183 4.33217C9.24255 4.44095 9.22183 4.54881 9.18084 4.64957C9.13985 4.75034 9.07941 4.84203 9.00296 4.91942C8.92651 4.99681 8.83555 5.05837 8.73529 5.10058C8.63504 5.14279 8.52744 5.16482 8.41866 5.16542H5.12599C4.21666 5.16542 3.47966 5.91159 3.47966 6.83101V16.8282C3.47966 17.7485 4.21666 18.4947 5.12599 18.4947H15.004C15.9133 18.4947 16.6512 17.7485 16.6512 16.8282V13.4961C16.6512 13.0359 17.0197 12.6628 17.4744 12.6628C17.9291 12.6628 18.2976 13.0359 18.2976 13.497V16.8282C18.2976 18.6688 16.8227 20.1612 15.004 20.1612H5.12599C3.30733 20.1612 1.83333 18.6688 1.83333 16.8282V6.83101C1.83333 4.99126 3.30733 3.49892 5.12599 3.49892H8.41866Z" fill="#29A99A"/>
</svg>
