<svg width="205" height="38" viewBox="0 0 205 38" fill="none" xmlns="http://www.w3.org/2000/svg">
<path d="M182.414 5.12546L177.454 4.3703L172.483 3.67406C172.483 3.67406 167.749 2.79572 167.958 4.80947L177.191 6.16446L186.423 7.51946C187.202 5.65032 182.414 5.13081 182.414 5.13081V5.12546Z" fill="#00A884"/>
<path d="M172.166 5.99287L177.105 6.72661L182.048 7.43892C182.048 7.43892 186.777 8.20478 186.396 7.39071L177.207 6.04643L168.017 4.70215C167.421 5.36626 172.166 5.99287 172.166 5.99287Z" fill="#00A884"/>
<path d="M63.7064 4.05405C63.7064 4.05405 52.5934 3.27747 50.4492 14.4495V37.2809C53.1952 37.2809 55.42 35.0636 55.42 32.3268V19.7945C55.42 19.7945 57.9403 20.6246 60.4821 19.3232C63.0239 18.0164 64.491 14.1496 64.491 14.1496C64.491 14.1496 59.4074 12.5643 55.9359 14.9476C55.9359 14.9476 56.0917 9.18482 63.5667 9.72574C63.5667 9.72574 63.7064 3.85053 63.7064 4.0594V4.05405Z" fill="#00A884"/>
<path d="M150.279 14.4497V37.2811C153.025 37.2811 155.249 35.0638 155.249 32.3271V19.7947C155.249 19.7947 157.77 20.6248 160.311 19.3234C162.853 18.0166 164.32 14.1498 164.32 14.1498C164.32 14.1498 159.016 11.9593 155.545 14.3426" fill="#00A884"/>
<path d="M77.3614 12.8643C70.5689 12.8643 65.0608 18.3539 65.0608 25.1235C65.0608 31.8931 70.5689 37.3827 77.3614 37.3827C84.1539 37.3827 89.6621 31.8931 89.6621 25.1235C89.6621 18.3539 84.1539 12.8643 77.3614 12.8643ZM77.3614 32.2519C73.4117 32.2519 70.2089 29.0599 70.2089 25.1235C70.2089 21.187 73.4117 17.995 77.3614 17.995C81.3112 17.995 84.514 21.187 84.514 25.1235C84.514 29.0599 81.3112 32.2519 77.3614 32.2519Z" fill="#00A884"/>
<path d="M89.662 25.2681H84.5354V37.1845H89.662V25.2681Z" fill="#00A884"/>
<path d="M91.6773 37.2756C94.2728 37.2756 96.374 35.1761 96.374 32.5947V21.969C96.374 21.969 96.8146 18.1718 100.222 18.145C103.629 18.1182 105.778 20.6086 105.778 23.6025V37.4148C108.594 37.4148 110.878 35.1386 110.878 32.3323V22.4456C110.878 22.4456 110.83 21.4869 110.271 20.2337C110.271 20.2337 111.582 18.3217 113.898 18.4556C116.214 18.5949 117.783 19.9391 117.783 21.6798V37.4577C121.056 37.4577 123.436 34.812 123.436 31.5557V20.7264C123.436 20.7264 122.222 13.2981 114.758 13.2981C114.758 13.2981 111.415 12.6018 107.955 16.1259C107.955 16.1259 103.484 12.2912 98.4268 13.2606C93.37 14.23 92.0104 19.034 91.817 20.0784C91.6235 21.1228 91.6773 37.4362 91.6773 37.2809V37.2756Z" fill="#00A884"/>
<path d="M136.559 12.9877C121.991 13.0895 119.444 36.1458 137.113 37.3455C137.113 37.3455 142.986 37.7954 147.35 31.7916L145.275 31.0847C143.631 30.5223 141.836 30.7366 140.332 31.5988C139.294 32.1933 137.865 32.6753 136.108 32.4397C131.239 31.7916 130.014 27.4267 130.014 27.4267L148.29 26.9233C148.29 26.9233 149.51 12.8967 136.565 12.9877H136.559ZM130.143 22.9601C130.143 22.9601 130.686 18.2685 136.645 18.2953C142.852 18.3167 143.432 22.9601 143.432 22.9601H130.143Z" fill="#00A884"/>
<path d="M177.362 37.6776C175.686 37.6776 174.326 36.3226 174.326 34.6516V11.7453C174.326 11.6864 174.375 11.6328 174.439 11.6328L176.368 12.2112C176.884 12.3665 177.432 12.3772 177.959 12.238L180.296 11.6274C180.356 11.6274 180.409 11.6756 180.409 11.7399V34.6463C180.409 36.3173 179.05 37.6723 177.373 37.6723L177.362 37.6776Z" fill="#00A884"/>
<path d="M177.153 9.84372C178.946 9.84372 180.399 8.39543 180.399 6.60887C180.399 4.82231 178.946 3.37402 177.153 3.37402C175.36 3.37402 173.907 4.82231 173.907 6.60887C173.907 8.39543 175.36 9.84372 177.153 9.84372Z" fill="#00A884"/>
<path d="M182.634 23.9989V37.4096C185.375 37.4096 187.6 35.1923 187.6 32.4609V23.8007C187.6 22.1833 188.288 20.6194 189.55 19.6072C190.539 18.8146 191.84 18.1558 193.909 18.1558C199.1 18.1558 199.954 22.2743 199.992 23.0509C200.029 23.8275 200.056 37.2757 200.056 37.2757C202.786 37.2757 205 35.0691 205 32.3484V24.3149C205 21.9851 204.393 19.6768 203.135 17.7113C201.641 15.3923 199.035 13.0732 194.57 13.0732C190.104 13.0732 187.213 14.4657 185.402 16.3938C183.591 18.3218 182.634 20.0785 182.634 24.0042V23.9989Z" fill="#00A884"/>
<path d="M177.002 0.0375539C176.116 -0.176674 175.503 0.551702 174.982 1.27472C174.079 2.5226 172.854 4.41317 173.493 4.63811C174.09 4.84698 179.378 4.2525 181.162 5.50573C182.193 6.22875 181.758 3.57768 181.436 1.9549C181.328 1.40862 181.054 0.958736 180.501 0.792709C179.426 0.471366 178.34 0.353541 177.008 0.0375539H177.002Z" fill="#00A884"/>
<path d="M20.5924 36.494C20.5924 36.494 18.2118 22.0925 40.0939 23.2065C40.0939 23.2065 38.3636 37.1956 20.5924 36.494Z" fill="#00A884"/>
<path d="M18.357 14.155C18.357 14.155 19.6736 22.8955 7.57715 22.2207C7.57715 22.2207 8.53369 13.7319 18.357 14.155Z" fill="#00A884"/>
<path d="M21.5973 14.155C21.5973 14.155 20.2807 22.8955 32.3771 22.2207C32.3771 22.2207 31.4206 13.7319 21.5973 14.155Z" fill="#00A884"/>
<path d="M19.5015 36.4939C19.5015 36.4939 21.8821 22.0924 0 23.201C0 23.201 1.73037 37.1901 19.5015 36.4885V36.4939Z" fill="#00A884"/>
<path d="M19.9476 14.1392C19.9476 19.2806 15.7668 23.4527 10.6025 23.4527H29.2873C24.1284 23.4527 19.9422 19.286 19.9422 14.1392H19.9476Z" fill="#00A884"/>
<path d="M29.2873 23.4473H10.6025C15.7614 23.4473 19.9476 27.614 19.9476 32.7608C19.9476 27.6194 24.1284 23.4473 29.2926 23.4473H29.2873Z" fill="#00A884"/>
</svg>
